<mxfile host="app.diagrams.net" modified="2020-12-18T07:14:47.594Z" agent="5.0 (Windows)" etag="KJP7cIibA3zFcAQkqAbD" version="14.0.5" type="github">
  <diagram id="dMnIHLM8aTlbsJUh-Kxh" name="Page-1">
    <mxGraphModel dx="1057" dy="2335" grid="1" gridSize="10" guides="1" tooltips="1" connect="1" arrows="1" fold="1" page="1" pageScale="1" pageWidth="827" pageHeight="1169" math="0" shadow="0">
      <root>
        <mxCell id="0" />
        <mxCell id="1" parent="0" />
        <mxCell id="09_Y4HbsA0_MMS8WtF8S-1" value="" style="edgeStyle=orthogonalEdgeStyle;rounded=0;orthogonalLoop=1;jettySize=auto;html=1;entryX=0.5;entryY=0;entryDx=0;entryDy=0;" edge="1" parent="1" source="09_Y4HbsA0_MMS8WtF8S-4" target="09_Y4HbsA0_MMS8WtF8S-9">
          <mxGeometry relative="1" as="geometry">
            <mxPoint x="1420.0588235294117" y="-945.2" as="targetPoint" />
          </mxGeometry>
        </mxCell>
        <mxCell id="09_Y4HbsA0_MMS8WtF8S-2" value="否" style="edgeLabel;html=1;align=center;verticalAlign=middle;resizable=0;points=[];" vertex="1" connectable="0" parent="09_Y4HbsA0_MMS8WtF8S-1">
          <mxGeometry x="-0.8122" y="1" relative="1" as="geometry">
            <mxPoint x="-11" as="offset" />
          </mxGeometry>
        </mxCell>
        <mxCell id="09_Y4HbsA0_MMS8WtF8S-3" value="是" style="edgeStyle=orthogonalEdgeStyle;rounded=0;orthogonalLoop=1;jettySize=auto;html=1;" edge="1" parent="1" source="09_Y4HbsA0_MMS8WtF8S-4" target="09_Y4HbsA0_MMS8WtF8S-39">
          <mxGeometry x="-0.8182" y="15" relative="1" as="geometry">
            <mxPoint as="offset" />
          </mxGeometry>
        </mxCell>
        <mxCell id="09_Y4HbsA0_MMS8WtF8S-4" value="裸适配器结果是否过期？" style="rhombus;whiteSpace=wrap;html=1;" vertex="1" parent="1">
          <mxGeometry x="1175" y="-1050.2" width="150" height="80" as="geometry" />
        </mxCell>
        <mxCell id="09_Y4HbsA0_MMS8WtF8S-5" value="" style="edgeStyle=orthogonalEdgeStyle;rounded=0;orthogonalLoop=1;jettySize=auto;html=1;entryX=0;entryY=0.5;entryDx=0;entryDy=0;entryPerimeter=0;" edge="1" parent="1" source="09_Y4HbsA0_MMS8WtF8S-9" target="09_Y4HbsA0_MMS8WtF8S-16">
          <mxGeometry relative="1" as="geometry">
            <mxPoint x="1380" y="-899.2" as="targetPoint" />
          </mxGeometry>
        </mxCell>
        <mxCell id="09_Y4HbsA0_MMS8WtF8S-6" value="是" style="edgeLabel;html=1;align=center;verticalAlign=middle;resizable=0;points=[];" vertex="1" connectable="0" parent="09_Y4HbsA0_MMS8WtF8S-5">
          <mxGeometry x="-0.184" y="-1" relative="1" as="geometry">
            <mxPoint x="-5.8" y="-11" as="offset" />
          </mxGeometry>
        </mxCell>
        <mxCell id="09_Y4HbsA0_MMS8WtF8S-7" value="" style="edgeStyle=orthogonalEdgeStyle;rounded=0;orthogonalLoop=1;jettySize=auto;html=1;" edge="1" parent="1" source="09_Y4HbsA0_MMS8WtF8S-9" target="09_Y4HbsA0_MMS8WtF8S-12">
          <mxGeometry relative="1" as="geometry" />
        </mxCell>
        <mxCell id="09_Y4HbsA0_MMS8WtF8S-8" value="否" style="edgeLabel;html=1;align=center;verticalAlign=middle;resizable=0;points=[];" vertex="1" connectable="0" parent="09_Y4HbsA0_MMS8WtF8S-7">
          <mxGeometry x="-0.8133" y="-2" relative="1" as="geometry">
            <mxPoint x="12" as="offset" />
          </mxGeometry>
        </mxCell>
        <mxCell id="09_Y4HbsA0_MMS8WtF8S-9" value="是否测试已完成？" style="rhombus;whiteSpace=wrap;html=1;" vertex="1" parent="1">
          <mxGeometry x="1195" y="-939.2" width="110" height="80" as="geometry" />
        </mxCell>
        <mxCell id="09_Y4HbsA0_MMS8WtF8S-10" value="" style="edgeStyle=orthogonalEdgeStyle;rounded=0;orthogonalLoop=1;jettySize=auto;html=1;" edge="1" parent="1" source="09_Y4HbsA0_MMS8WtF8S-12" target="09_Y4HbsA0_MMS8WtF8S-17">
          <mxGeometry relative="1" as="geometry" />
        </mxCell>
        <mxCell id="09_Y4HbsA0_MMS8WtF8S-11" value="" style="edgeStyle=orthogonalEdgeStyle;rounded=0;orthogonalLoop=1;jettySize=auto;html=1;" edge="1" parent="1" source="09_Y4HbsA0_MMS8WtF8S-12" target="09_Y4HbsA0_MMS8WtF8S-49">
          <mxGeometry relative="1" as="geometry" />
        </mxCell>
        <mxCell id="09_Y4HbsA0_MMS8WtF8S-12" value="切换到待测项目" style="whiteSpace=wrap;html=1;" vertex="1" parent="1">
          <mxGeometry x="1190" y="-829.2" width="120" height="60" as="geometry" />
        </mxCell>
        <mxCell id="09_Y4HbsA0_MMS8WtF8S-13" value="" style="edgeStyle=orthogonalEdgeStyle;rounded=0;orthogonalLoop=1;jettySize=auto;html=1;entryX=0.5;entryY=0;entryDx=0;entryDy=0;" edge="1" parent="1" source="09_Y4HbsA0_MMS8WtF8S-15" target="09_Y4HbsA0_MMS8WtF8S-22">
          <mxGeometry relative="1" as="geometry">
            <mxPoint x="1250.0588235294117" y="-176.20000000000005" as="targetPoint" />
            <Array as="points">
              <mxPoint x="1251" y="-165.20000000000005" />
              <mxPoint x="1251" y="-165.20000000000005" />
            </Array>
          </mxGeometry>
        </mxCell>
        <mxCell id="09_Y4HbsA0_MMS8WtF8S-14" value="" style="edgeStyle=orthogonalEdgeStyle;rounded=0;orthogonalLoop=1;jettySize=auto;html=1;" edge="1" parent="1" source="09_Y4HbsA0_MMS8WtF8S-15" target="09_Y4HbsA0_MMS8WtF8S-18">
          <mxGeometry relative="1" as="geometry">
            <Array as="points">
              <mxPoint x="1340" y="-231.20000000000005" />
              <mxPoint x="1340" y="-231.20000000000005" />
            </Array>
          </mxGeometry>
        </mxCell>
        <mxCell id="09_Y4HbsA0_MMS8WtF8S-15" value="等待控制状态就绪" style="whiteSpace=wrap;html=1;" vertex="1" parent="1">
          <mxGeometry x="1190" y="-261.70000000000005" width="120" height="60" as="geometry" />
        </mxCell>
        <mxCell id="09_Y4HbsA0_MMS8WtF8S-16" value="测试已完成" style="strokeWidth=2;html=1;shape=mxgraph.flowchart.display;whiteSpace=wrap;" vertex="1" parent="1">
          <mxGeometry x="1540" y="-929.2" width="100" height="60" as="geometry" />
        </mxCell>
        <mxCell id="09_Y4HbsA0_MMS8WtF8S-17" value="当前被测人员及次别" style="strokeWidth=2;html=1;shape=mxgraph.flowchart.display;whiteSpace=wrap;" vertex="1" parent="1">
          <mxGeometry x="1380" y="-829.2" width="100" height="60" as="geometry" />
        </mxCell>
        <mxCell id="09_Y4HbsA0_MMS8WtF8S-18" value="设备准备中" style="strokeWidth=2;html=1;shape=mxgraph.flowchart.display;whiteSpace=wrap;" vertex="1" parent="1">
          <mxGeometry x="1380" y="-261.20000000000005" width="100" height="60" as="geometry" />
        </mxCell>
        <mxCell id="09_Y4HbsA0_MMS8WtF8S-19" value="握紧手柄开始测试" style="strokeWidth=2;html=1;shape=mxgraph.flowchart.display;whiteSpace=wrap;" vertex="1" parent="1">
          <mxGeometry x="1381" y="-115.20000000000005" width="100" height="60" as="geometry" />
        </mxCell>
        <mxCell id="09_Y4HbsA0_MMS8WtF8S-20" value="" style="edgeStyle=orthogonalEdgeStyle;rounded=0;orthogonalLoop=1;jettySize=auto;html=1;" edge="1" parent="1" source="09_Y4HbsA0_MMS8WtF8S-22" target="09_Y4HbsA0_MMS8WtF8S-19">
          <mxGeometry relative="1" as="geometry" />
        </mxCell>
        <mxCell id="09_Y4HbsA0_MMS8WtF8S-21" value="" style="edgeStyle=orthogonalEdgeStyle;rounded=0;orthogonalLoop=1;jettySize=auto;html=1;" edge="1" parent="1" source="09_Y4HbsA0_MMS8WtF8S-22" target="09_Y4HbsA0_MMS8WtF8S-33">
          <mxGeometry relative="1" as="geometry" />
        </mxCell>
        <mxCell id="09_Y4HbsA0_MMS8WtF8S-22" value="等待进给力和握力到达标准范围" style="whiteSpace=wrap;html=1;" vertex="1" parent="1">
          <mxGeometry x="1191" y="-115.20000000000005" width="120" height="60" as="geometry" />
        </mxCell>
        <mxCell id="09_Y4HbsA0_MMS8WtF8S-23" style="edgeStyle=orthogonalEdgeStyle;rounded=0;orthogonalLoop=1;jettySize=auto;html=1;entryX=1;entryY=0.5;entryDx=0;entryDy=0;" edge="1" parent="1" source="09_Y4HbsA0_MMS8WtF8S-26" target="09_Y4HbsA0_MMS8WtF8S-33">
          <mxGeometry relative="1" as="geometry">
            <mxPoint x="1541.0000000000002" y="74.79999999999995" as="targetPoint" />
            <Array as="points">
              <mxPoint x="1511" y="234.79999999999995" />
              <mxPoint x="1511" y="14.799999999999955" />
            </Array>
          </mxGeometry>
        </mxCell>
        <mxCell id="09_Y4HbsA0_MMS8WtF8S-24" value="否" style="edgeLabel;html=1;align=center;verticalAlign=middle;resizable=0;points=[];" vertex="1" connectable="0" parent="09_Y4HbsA0_MMS8WtF8S-23">
          <mxGeometry x="-0.8802" y="-3" relative="1" as="geometry">
            <mxPoint x="-29.17" y="-13" as="offset" />
          </mxGeometry>
        </mxCell>
        <mxCell id="09_Y4HbsA0_MMS8WtF8S-25" value="是" style="edgeStyle=orthogonalEdgeStyle;rounded=0;orthogonalLoop=1;jettySize=auto;html=1;" edge="1" parent="1" source="09_Y4HbsA0_MMS8WtF8S-26" target="09_Y4HbsA0_MMS8WtF8S-42">
          <mxGeometry x="0.2867" y="-10" relative="1" as="geometry">
            <mxPoint as="offset" />
          </mxGeometry>
        </mxCell>
        <mxCell id="09_Y4HbsA0_MMS8WtF8S-26" value="测试时间是否满足标准要求？" style="rhombus;whiteSpace=wrap;html=1;" vertex="1" parent="1">
          <mxGeometry x="1156" y="194.79999999999995" width="190" height="80" as="geometry" />
        </mxCell>
        <mxCell id="09_Y4HbsA0_MMS8WtF8S-27" value="显示测试进度" style="strokeWidth=2;html=1;shape=mxgraph.flowchart.display;whiteSpace=wrap;" vertex="1" parent="1">
          <mxGeometry x="1371" y="84.79999999999995" width="100" height="60" as="geometry" />
        </mxCell>
        <mxCell id="09_Y4HbsA0_MMS8WtF8S-28" value="" style="edgeStyle=orthogonalEdgeStyle;rounded=0;orthogonalLoop=1;jettySize=auto;html=1;" edge="1" parent="1" source="09_Y4HbsA0_MMS8WtF8S-30" target="09_Y4HbsA0_MMS8WtF8S-27">
          <mxGeometry relative="1" as="geometry" />
        </mxCell>
        <mxCell id="09_Y4HbsA0_MMS8WtF8S-29" value="" style="edgeStyle=orthogonalEdgeStyle;rounded=0;orthogonalLoop=1;jettySize=auto;html=1;" edge="1" parent="1" source="09_Y4HbsA0_MMS8WtF8S-30" target="09_Y4HbsA0_MMS8WtF8S-26">
          <mxGeometry relative="1" as="geometry" />
        </mxCell>
        <mxCell id="09_Y4HbsA0_MMS8WtF8S-30" value="执行计算" style="whiteSpace=wrap;html=1;" vertex="1" parent="1">
          <mxGeometry x="1191" y="84.79999999999995" width="120" height="60" as="geometry" />
        </mxCell>
        <mxCell id="09_Y4HbsA0_MMS8WtF8S-31" value="否" style="edgeStyle=orthogonalEdgeStyle;rounded=0;orthogonalLoop=1;jettySize=auto;html=1;" edge="1" parent="1" source="09_Y4HbsA0_MMS8WtF8S-33" target="09_Y4HbsA0_MMS8WtF8S-35">
          <mxGeometry x="-0.5556" y="-10" relative="1" as="geometry">
            <mxPoint as="offset" />
          </mxGeometry>
        </mxCell>
        <mxCell id="09_Y4HbsA0_MMS8WtF8S-32" value="是" style="edgeStyle=orthogonalEdgeStyle;rounded=0;orthogonalLoop=1;jettySize=auto;html=1;" edge="1" parent="1" source="09_Y4HbsA0_MMS8WtF8S-33" target="09_Y4HbsA0_MMS8WtF8S-30">
          <mxGeometry x="-0.8394" y="10" relative="1" as="geometry">
            <mxPoint as="offset" />
          </mxGeometry>
        </mxCell>
        <mxCell id="09_Y4HbsA0_MMS8WtF8S-33" value="进给力和握力是否达标？" style="rhombus;whiteSpace=wrap;html=1;" vertex="1" parent="1">
          <mxGeometry x="1171" y="-25.200000000000045" width="160" height="80" as="geometry" />
        </mxCell>
        <mxCell id="09_Y4HbsA0_MMS8WtF8S-34" style="edgeStyle=orthogonalEdgeStyle;rounded=0;orthogonalLoop=1;jettySize=auto;html=1;entryX=0;entryY=0.5;entryDx=0;entryDy=0;" edge="1" parent="1" source="09_Y4HbsA0_MMS8WtF8S-35" target="09_Y4HbsA0_MMS8WtF8S-22">
          <mxGeometry relative="1" as="geometry">
            <Array as="points">
              <mxPoint x="1061" y="-85.20000000000005" />
            </Array>
          </mxGeometry>
        </mxCell>
        <mxCell id="09_Y4HbsA0_MMS8WtF8S-35" value="清空当前结果" style="whiteSpace=wrap;html=1;" vertex="1" parent="1">
          <mxGeometry x="1006" y="-15.200000000000045" width="120" height="60" as="geometry" />
        </mxCell>
        <mxCell id="09_Y4HbsA0_MMS8WtF8S-36" style="edgeStyle=orthogonalEdgeStyle;rounded=0;orthogonalLoop=1;jettySize=auto;html=1;entryX=0;entryY=0.5;entryDx=0;entryDy=0;" edge="1" parent="1" source="09_Y4HbsA0_MMS8WtF8S-37" target="09_Y4HbsA0_MMS8WtF8S-9">
          <mxGeometry relative="1" as="geometry">
            <mxPoint x="860" y="-195.20000000000005" as="targetPoint" />
            <Array as="points">
              <mxPoint x="1251" y="514.8" />
              <mxPoint x="860" y="514.8" />
              <mxPoint x="860" y="-899.2" />
            </Array>
          </mxGeometry>
        </mxCell>
        <mxCell id="09_Y4HbsA0_MMS8WtF8S-37" value="记录当前测试结果" style="whiteSpace=wrap;html=1;" vertex="1" parent="1">
          <mxGeometry x="1191" y="407.79999999999995" width="120" height="60" as="geometry" />
        </mxCell>
        <mxCell id="09_Y4HbsA0_MMS8WtF8S-38" style="edgeStyle=orthogonalEdgeStyle;rounded=0;orthogonalLoop=1;jettySize=auto;html=1;exitX=0.5;exitY=1;exitDx=0;exitDy=0;exitPerimeter=0;entryX=0.5;entryY=0;entryDx=0;entryDy=0;" edge="1" parent="1" source="09_Y4HbsA0_MMS8WtF8S-39" target="09_Y4HbsA0_MMS8WtF8S-9">
          <mxGeometry relative="1" as="geometry" />
        </mxCell>
        <mxCell id="09_Y4HbsA0_MMS8WtF8S-39" value="提示裸适配器结果已过期" style="strokeWidth=2;html=1;shape=mxgraph.flowchart.display;whiteSpace=wrap;" vertex="1" parent="1">
          <mxGeometry x="1380" y="-1040.2" width="100" height="60" as="geometry" />
        </mxCell>
        <mxCell id="09_Y4HbsA0_MMS8WtF8S-40" value="是" style="edgeStyle=orthogonalEdgeStyle;rounded=0;orthogonalLoop=1;jettySize=auto;html=1;" edge="1" parent="1" source="09_Y4HbsA0_MMS8WtF8S-42" target="09_Y4HbsA0_MMS8WtF8S-46">
          <mxGeometry x="-0.6" y="-10" relative="1" as="geometry">
            <mxPoint as="offset" />
          </mxGeometry>
        </mxCell>
        <mxCell id="09_Y4HbsA0_MMS8WtF8S-41" value="否" style="edgeStyle=orthogonalEdgeStyle;rounded=0;orthogonalLoop=1;jettySize=auto;html=1;" edge="1" parent="1" source="09_Y4HbsA0_MMS8WtF8S-42" target="09_Y4HbsA0_MMS8WtF8S-37">
          <mxGeometry x="0.2157" y="20" relative="1" as="geometry">
            <mxPoint as="offset" />
          </mxGeometry>
        </mxCell>
        <mxCell id="09_Y4HbsA0_MMS8WtF8S-42" value="裸适配器测试？" style="rhombus;whiteSpace=wrap;html=1;" vertex="1" parent="1">
          <mxGeometry x="1181" y="298.79999999999995" width="140" height="80" as="geometry" />
        </mxCell>
        <mxCell id="09_Y4HbsA0_MMS8WtF8S-43" style="edgeStyle=orthogonalEdgeStyle;rounded=0;orthogonalLoop=1;jettySize=auto;html=1;entryX=0;entryY=0.5;entryDx=0;entryDy=0;" edge="1" parent="1" source="09_Y4HbsA0_MMS8WtF8S-46" target="09_Y4HbsA0_MMS8WtF8S-37">
          <mxGeometry relative="1" as="geometry">
            <Array as="points">
              <mxPoint x="1066" y="437.79999999999995" />
            </Array>
          </mxGeometry>
        </mxCell>
        <mxCell id="09_Y4HbsA0_MMS8WtF8S-44" value="是" style="edgeLabel;html=1;align=center;verticalAlign=middle;resizable=0;points=[];" vertex="1" connectable="0" parent="09_Y4HbsA0_MMS8WtF8S-43">
          <mxGeometry x="-0.8529" y="3" relative="1" as="geometry">
            <mxPoint x="6.97" y="-3.08" as="offset" />
          </mxGeometry>
        </mxCell>
        <mxCell id="09_Y4HbsA0_MMS8WtF8S-45" value="否" style="edgeStyle=orthogonalEdgeStyle;rounded=0;orthogonalLoop=1;jettySize=auto;html=1;entryX=0.5;entryY=1;entryDx=0;entryDy=0;" edge="1" parent="1" source="09_Y4HbsA0_MMS8WtF8S-46" target="09_Y4HbsA0_MMS8WtF8S-35">
          <mxGeometry x="-0.9213" y="-15" relative="1" as="geometry">
            <Array as="points">
              <mxPoint x="1066" y="218.79999999999995" />
              <mxPoint x="1066" y="218.79999999999995" />
            </Array>
            <mxPoint y="-1" as="offset" />
          </mxGeometry>
        </mxCell>
        <mxCell id="09_Y4HbsA0_MMS8WtF8S-46" value="满足裸适配器的传递率要求？" style="rhombus;whiteSpace=wrap;html=1;" vertex="1" parent="1">
          <mxGeometry x="1006" y="298.79999999999995" width="120" height="80" as="geometry" />
        </mxCell>
        <mxCell id="09_Y4HbsA0_MMS8WtF8S-47" value="是" style="edgeStyle=orthogonalEdgeStyle;rounded=0;orthogonalLoop=1;jettySize=auto;html=1;" edge="1" parent="1" source="09_Y4HbsA0_MMS8WtF8S-49" target="09_Y4HbsA0_MMS8WtF8S-51">
          <mxGeometry x="-1" y="-20" relative="1" as="geometry">
            <mxPoint as="offset" />
          </mxGeometry>
        </mxCell>
        <mxCell id="09_Y4HbsA0_MMS8WtF8S-48" value="否" style="edgeStyle=orthogonalEdgeStyle;rounded=0;orthogonalLoop=1;jettySize=auto;html=1;exitX=1;exitY=0.5;exitDx=0;exitDy=0;exitPerimeter=0;entryX=1;entryY=0.5;entryDx=0;entryDy=0;entryPerimeter=0;" edge="1" parent="1" source="09_Y4HbsA0_MMS8WtF8S-49" target="09_Y4HbsA0_MMS8WtF8S-56">
          <mxGeometry x="-0.9248" y="20" relative="1" as="geometry">
            <Array as="points">
              <mxPoint x="1370" y="-685.2" />
              <mxPoint x="1370" y="-455.2" />
            </Array>
            <mxPoint x="1" as="offset" />
          </mxGeometry>
        </mxCell>
        <mxCell id="09_Y4HbsA0_MMS8WtF8S-49" value="裸适配器测试？" style="strokeWidth=2;html=1;shape=mxgraph.flowchart.decision;whiteSpace=wrap;" vertex="1" parent="1">
          <mxGeometry x="1200" y="-735.2" width="100" height="100" as="geometry" />
        </mxCell>
        <mxCell id="09_Y4HbsA0_MMS8WtF8S-50" value="否" style="edgeStyle=orthogonalEdgeStyle;rounded=0;orthogonalLoop=1;jettySize=auto;html=1;" edge="1" parent="1" source="09_Y4HbsA0_MMS8WtF8S-56" target="09_Y4HbsA0_MMS8WtF8S-53">
          <mxGeometry x="-1" y="20" relative="1" as="geometry">
            <mxPoint as="offset" />
          </mxGeometry>
        </mxCell>
        <mxCell id="09_Y4HbsA0_MMS8WtF8S-51" value="开启监测-固定裸适配器使握力达标-停止监测" style="whiteSpace=wrap;html=1;strokeWidth=2;" vertex="1" parent="1">
          <mxGeometry x="1190" y="-595.2" width="120" height="60" as="geometry" />
        </mxCell>
        <mxCell id="09_Y4HbsA0_MMS8WtF8S-52" value="" style="edgeStyle=orthogonalEdgeStyle;rounded=0;orthogonalLoop=1;jettySize=auto;html=1;" edge="1" parent="1" source="09_Y4HbsA0_MMS8WtF8S-53" target="09_Y4HbsA0_MMS8WtF8S-15">
          <mxGeometry relative="1" as="geometry" />
        </mxCell>
        <mxCell id="09_Y4HbsA0_MMS8WtF8S-53" value="等待开始控制分析" style="whiteSpace=wrap;html=1;strokeWidth=2;" vertex="1" parent="1">
          <mxGeometry x="1190" y="-375.2" width="120" height="60" as="geometry" />
        </mxCell>
        <mxCell id="09_Y4HbsA0_MMS8WtF8S-54" style="edgeStyle=orthogonalEdgeStyle;rounded=0;orthogonalLoop=1;jettySize=auto;html=1;entryX=0.5;entryY=0;entryDx=0;entryDy=0;" edge="1" parent="1" source="09_Y4HbsA0_MMS8WtF8S-56" target="09_Y4HbsA0_MMS8WtF8S-22">
          <mxGeometry relative="1" as="geometry">
            <Array as="points">
              <mxPoint x="1100" y="-455.2" />
              <mxPoint x="1100" y="-165.20000000000005" />
              <mxPoint x="1251" y="-165.20000000000005" />
            </Array>
          </mxGeometry>
        </mxCell>
        <mxCell id="09_Y4HbsA0_MMS8WtF8S-55" value="是" style="edgeLabel;html=1;align=center;verticalAlign=middle;resizable=0;points=[];" vertex="1" connectable="0" parent="09_Y4HbsA0_MMS8WtF8S-54">
          <mxGeometry x="-0.9125" y="-1" relative="1" as="geometry">
            <mxPoint x="15.71" y="-19" as="offset" />
          </mxGeometry>
        </mxCell>
        <mxCell id="09_Y4HbsA0_MMS8WtF8S-56" value="控制状态已就绪" style="strokeWidth=2;html=1;shape=mxgraph.flowchart.decision;whiteSpace=wrap;" vertex="1" parent="1">
          <mxGeometry x="1200" y="-505.2" width="100" height="100" as="geometry" />
        </mxCell>
        <mxCell id="09_Y4HbsA0_MMS8WtF8S-57" value="" style="edgeStyle=orthogonalEdgeStyle;rounded=0;orthogonalLoop=1;jettySize=auto;html=1;" edge="1" parent="1" source="09_Y4HbsA0_MMS8WtF8S-51" target="09_Y4HbsA0_MMS8WtF8S-56">
          <mxGeometry relative="1" as="geometry">
            <mxPoint x="1250" y="-535.2" as="sourcePoint" />
            <mxPoint x="1250" y="-365.2" as="targetPoint" />
          </mxGeometry>
        </mxCell>
        <mxCell id="09_Y4HbsA0_MMS8WtF8S-58" value="准备测试" style="strokeWidth=2;html=1;shape=mxgraph.flowchart.annotation_2;align=left;labelPosition=right;pointerEvents=1;direction=west;" vertex="1" parent="1">
          <mxGeometry x="1510" y="-805.2" width="50" height="580" as="geometry" />
        </mxCell>
        <mxCell id="09_Y4HbsA0_MMS8WtF8S-59" value="执行测试计算" style="strokeWidth=2;html=1;shape=mxgraph.flowchart.annotation_2;align=left;labelPosition=right;pointerEvents=1;direction=west;" vertex="1" parent="1">
          <mxGeometry x="1520" y="-95.20000000000005" width="50" height="550" as="geometry" />
        </mxCell>
        <mxCell id="09_Y4HbsA0_MMS8WtF8S-60" value="" style="edgeStyle=orthogonalEdgeStyle;rounded=0;orthogonalLoop=1;jettySize=auto;html=1;" edge="1" parent="1" source="09_Y4HbsA0_MMS8WtF8S-61" target="09_Y4HbsA0_MMS8WtF8S-4">
          <mxGeometry relative="1" as="geometry" />
        </mxCell>
        <mxCell id="09_Y4HbsA0_MMS8WtF8S-61" value="开始" style="strokeWidth=2;html=1;shape=mxgraph.flowchart.start_1;whiteSpace=wrap;" vertex="1" parent="1">
          <mxGeometry x="1200" y="-1150" width="100" height="60" as="geometry" />
        </mxCell>
      </root>
    </mxGraphModel>
  </diagram>
</mxfile>
